<svg width="287" height="252" viewBox="0 0 287 252" fill="none" xmlns="http://www.w3.org/2000/svg">
<rect width="287" height="252" fill="#FB95D2"/>
<ellipse cx="39.0384" cy="35.6154" rx="39.0384" ry="35.6154" fill="#040EF0" fill-opacity="0.988542"/>
<ellipse cx="110.038" cy="35.6154" rx="39.0384" ry="35.6154" fill="#040EF0" fill-opacity="0.988542"/>
<ellipse cx="110.038" cy="95.1701" rx="39.0384" ry="35.6154" fill="#040EF0" fill-opacity="0.988542"/>
<ellipse cx="39.0384" cy="95.1701" rx="39.0384" ry="35.6154" fill="#040EF0" fill-opacity="0.988542"/>
<ellipse cx="178.038" cy="35.6154" rx="39.0384" ry="35.6154" fill="#040EF0" fill-opacity="0.988542"/>
<ellipse cx="247.321" cy="35.6154" rx="39.0384" ry="35.6154" fill="#040EF0" fill-opacity="0.988542"/>
<ellipse cx="247.321" cy="95.1701" rx="39.0384" ry="35.6154" fill="#040EF0" fill-opacity="0.988542"/>
<ellipse cx="178.038" cy="95.1701" rx="39.0384" ry="35.6154" fill="#040EF0" fill-opacity="0.988542"/>
<ellipse cx="39.0384" cy="156.826" rx="39.0384" ry="35.6154" fill="#040EF0" fill-opacity="0.988542"/>
<ellipse cx="110.038" cy="156.826" rx="39.0384" ry="35.6154" fill="#040EF0" fill-opacity="0.988542"/>
<ellipse cx="110.038" cy="216.381" rx="39.0384" ry="35.6154" fill="#040EF0" fill-opacity="0.988542"/>
<ellipse cx="39.0384" cy="216.381" rx="39.0384" ry="35.6154" fill="#040EF0" fill-opacity="0.988542"/>
<ellipse cx="178.038" cy="156.826" rx="39.0384" ry="35.6154" fill="#040EF0" fill-opacity="0.988542"/>
<ellipse cx="247.321" cy="156.826" rx="39.0384" ry="35.6154" fill="#040EF0" fill-opacity="0.988542"/>
<ellipse cx="247.321" cy="216.381" rx="39.0384" ry="35.6154" fill="#040EF0" fill-opacity="0.988542"/>
<ellipse cx="178.038" cy="216.381" rx="39.0384" ry="35.6154" fill="#040EF0" fill-opacity="0.988542"/>
</svg>
