<svg width="336" height="326" viewBox="0 0 336 326" fill="none" xmlns="http://www.w3.org/2000/svg">
<path d="M58.3323 71.0174C77.8516 66.1972 94.7165 53.9442 105.333 36.8698C134.144 -9.46899 201.586 -9.46899 230.397 36.8697C241.013 53.9442 257.878 66.1972 277.397 71.0174C330.371 84.099 351.212 148.24 316.045 189.961C303.086 205.334 296.645 225.16 298.092 245.213C302.021 299.637 247.459 339.278 196.913 318.724C178.288 311.151 157.442 311.151 138.817 318.724C88.2712 339.278 33.7092 299.637 37.6377 245.213C39.0852 225.16 32.6434 205.334 19.6852 189.961C-15.4824 148.24 5.35843 84.099 58.3323 71.0174Z" fill="black" stroke="#C7FF51" stroke-width="3.48"/>
</svg>
