<svg width="2243" height="305" viewBox="0 0 2243 305" fill="none" xmlns="http://www.w3.org/2000/svg">
<rect width="39" height="39" fill="#C7FF51"/>
<rect x="114" width="39" height="39" fill="#C7FF51"/>
<rect x="39" y="39" width="75" height="39" fill="#C7FF51"/>
<rect x="760" width="39" height="39" fill="#C7FF51"/>
<rect x="874" width="39" height="39" fill="#C7FF51"/>
<rect x="799" y="39" width="75" height="39" fill="#C7FF51"/>
<rect x="190" width="39" height="39" fill="#C7FF51"/>
<rect x="304" width="39" height="39" fill="#C7FF51"/>
<rect x="229" y="39" width="75" height="39" fill="#C7FF51"/>
<rect x="950" width="39" height="39" fill="#C7FF51"/>
<rect x="1064" width="39" height="39" fill="#C7FF51"/>
<rect x="989" y="39" width="75" height="39" fill="#C7FF51"/>
<rect width="39" height="39" transform="matrix(1 0 0 -1 0 305)" fill="#C7FF51"/>
<rect width="39" height="39" transform="matrix(1 0 0 -1 114 305)" fill="#C7FF51"/>
<rect width="75" height="39" transform="matrix(1 0 0 -1 39 266)" fill="#C7FF51"/>
<rect width="39" height="39" transform="matrix(1 0 0 -1 760 305)" fill="#C7FF51"/>
<rect width="39" height="39" transform="matrix(1 0 0 -1 874 305)" fill="#C7FF51"/>
<rect width="75" height="39" transform="matrix(1 0 0 -1 799 266)" fill="#C7FF51"/>
<rect width="39" height="39" transform="matrix(1 0 0 -1 190 305)" fill="#C7FF51"/>
<rect width="39" height="39" transform="matrix(1 0 0 -1 304 305)" fill="#C7FF51"/>
<rect width="75" height="39" transform="matrix(1 0 0 -1 229 266)" fill="#C7FF51"/>
<rect width="39" height="39" transform="matrix(1 0 0 -1 950 305)" fill="#C7FF51"/>
<rect width="39" height="39" transform="matrix(1 0 0 -1 1064 305)" fill="#C7FF51"/>
<rect width="75" height="39" transform="matrix(1 0 0 -1 989 266)" fill="#C7FF51"/>
<rect x="380" width="39" height="39" fill="#C7FF51"/>
<rect x="494" width="39" height="39" fill="#C7FF51"/>
<rect x="419" y="39" width="75" height="39" fill="#C7FF51"/>
<rect x="570" width="39" height="39" fill="#C7FF51"/>
<rect x="684" width="39" height="39" fill="#C7FF51"/>
<rect x="609" y="39" width="75" height="39" fill="#C7FF51"/>
<rect width="39" height="39" transform="matrix(1 0 0 -1 380 305)" fill="#C7FF51"/>
<rect width="39" height="39" transform="matrix(1 0 0 -1 494 305)" fill="#C7FF51"/>
<rect width="75" height="39" transform="matrix(1 0 0 -1 419 266)" fill="#C7FF51"/>
<rect width="39" height="39" transform="matrix(1 0 0 -1 570 305)" fill="#C7FF51"/>
<rect width="39" height="39" transform="matrix(1 0 0 -1 684 305)" fill="#C7FF51"/>
<rect width="75" height="39" transform="matrix(1 0 0 -1 609 266)" fill="#C7FF51"/>
<rect x="1140" width="39" height="39" fill="#C7FF51"/>
<rect x="1254" width="39" height="39" fill="#C7FF51"/>
<rect x="1179" y="39" width="75" height="39" fill="#C7FF51"/>
<rect x="1900" width="39" height="39" fill="#C7FF51"/>
<rect x="2014" width="39" height="39" fill="#C7FF51"/>
<rect x="1939" y="39" width="75" height="39" fill="#C7FF51"/>
<rect x="1330" width="39" height="39" fill="#C7FF51"/>
<rect x="1444" width="39" height="39" fill="#C7FF51"/>
<rect x="1369" y="39" width="75" height="39" fill="#C7FF51"/>
<rect x="2090" width="39" height="39" fill="#C7FF51"/>
<rect x="2204" width="39" height="39" fill="#C7FF51"/>
<rect x="2129" y="39" width="75" height="39" fill="#C7FF51"/>
<rect width="39" height="39" transform="matrix(1 0 0 -1 1140 305)" fill="#C7FF51"/>
<rect width="39" height="39" transform="matrix(1 0 0 -1 1254 305)" fill="#C7FF51"/>
<rect width="75" height="39" transform="matrix(1 0 0 -1 1179 266)" fill="#C7FF51"/>
<rect width="39" height="39" transform="matrix(1 0 0 -1 1900 305)" fill="#C7FF51"/>
<rect width="39" height="39" transform="matrix(1 0 0 -1 2014 305)" fill="#C7FF51"/>
<rect width="75" height="39" transform="matrix(1 0 0 -1 1939 266)" fill="#C7FF51"/>
<rect width="39" height="39" transform="matrix(1 0 0 -1 1330 305)" fill="#C7FF51"/>
<rect width="39" height="39" transform="matrix(1 0 0 -1 1444 305)" fill="#C7FF51"/>
<rect width="75" height="39" transform="matrix(1 0 0 -1 1369 266)" fill="#C7FF51"/>
<rect width="39" height="39" transform="matrix(1 0 0 -1 2090 305)" fill="#C7FF51"/>
<rect width="39" height="39" transform="matrix(1 0 0 -1 2204 305)" fill="#C7FF51"/>
<rect width="75" height="39" transform="matrix(1 0 0 -1 2129 266)" fill="#C7FF51"/>
<rect x="1520" width="39" height="39" fill="#C7FF51"/>
<rect x="1634" width="39" height="39" fill="#C7FF51"/>
<rect x="1559" y="39" width="75" height="39" fill="#C7FF51"/>
<rect x="1710" width="39" height="39" fill="#C7FF51"/>
<rect x="1824" width="39" height="39" fill="#C7FF51"/>
<rect x="1749" y="39" width="75" height="39" fill="#C7FF51"/>
<rect width="39" height="39" transform="matrix(1 0 0 -1 1520 305)" fill="#C7FF51"/>
<rect width="39" height="39" transform="matrix(1 0 0 -1 1634 305)" fill="#C7FF51"/>
<rect width="75" height="39" transform="matrix(1 0 0 -1 1559 266)" fill="#C7FF51"/>
<rect width="39" height="39" transform="matrix(1 0 0 -1 1710 305)" fill="#C7FF51"/>
<rect width="39" height="39" transform="matrix(1 0 0 -1 1824 305)" fill="#C7FF51"/>
<rect width="75" height="39" transform="matrix(1 0 0 -1 1749 266)" fill="#C7FF51"/>
</svg>
