<svg width="267" height="267" viewBox="0 0 267 267" fill="none" xmlns="http://www.w3.org/2000/svg">
<path d="M239.432 133.012C240.184 133.578 240.948 134.145 241.724 134.713C241.256 135.531 240.792 136.335 240.329 137.124L242.487 138.387C240.694 141.448 238.939 144.297 237.211 146.961L235.113 145.601C233.208 148.539 231.34 151.245 229.496 153.757L231.512 155.236C229.419 158.087 227.353 160.698 225.297 163.118L223.392 161.5C221.165 164.122 218.95 166.516 216.724 168.752L218.495 170.516C216.068 172.953 213.627 175.207 211.142 177.361L209.504 175.472C207.01 177.634 204.464 179.702 201.83 181.766L203.373 183.734C200.794 185.756 198.143 187.766 195.391 189.847L193.883 187.853C193.664 188.019 193.444 188.185 193.223 188.352C190.861 190.138 188.413 191.99 185.872 193.95L187.398 195.929C184.866 197.882 182.241 199.944 179.506 202.165L177.93 200.224C175.438 202.248 172.854 204.404 170.165 206.731L171.801 208.621C169.394 210.704 166.902 212.925 164.316 215.311L162.621 213.474C160.254 215.659 157.809 217.98 155.28 220.46L157.03 222.245C154.742 224.488 152.384 226.862 149.949 229.383L148.151 227.647C145.901 229.977 143.587 232.43 141.206 235.02L143.046 236.712C140.871 239.078 138.637 241.559 136.343 244.164L134.467 242.512C133.997 243.046 133.525 243.584 133.05 244.128C132.545 243.527 132.038 242.932 131.53 242.344L129.639 243.979C127.308 241.281 124.947 238.732 122.563 236.315L124.343 234.56C121.805 231.987 119.243 229.562 116.666 227.268L115.004 229.135C112.345 226.769 109.671 224.543 106.992 222.438L108.536 220.473C105.705 218.248 102.871 216.159 100.048 214.181L98.6134 216.229C95.7073 214.194 92.8095 212.276 89.9345 210.451L91.2744 208.34C88.2488 206.42 85.2523 204.603 82.3038 202.862L81.0325 205.014C77.9701 203.206 74.9526 201.475 71.9985 199.789L73.2378 197.617C72.663 197.289 72.0913 196.963 71.5227 196.639C69.0231 195.214 66.5833 193.823 64.2027 192.438L62.9459 194.599C59.8567 192.803 56.8687 191.018 54.0067 189.202L55.3464 187.091C52.3687 185.201 49.5486 183.288 46.907 181.299L45.4032 183.296C42.5636 181.158 39.9106 178.923 37.4779 176.532L39.2304 174.749C36.8282 172.388 34.6647 169.883 32.7658 167.172L30.7182 168.607C28.7618 165.814 27.0638 162.8 25.6587 159.504L27.9584 158.524C26.7207 155.62 25.717 152.475 24.9775 149.036L22.5334 149.562C21.8452 146.361 21.379 142.929 21.1545 139.231L23.6499 139.079C23.5667 137.707 23.5175 136.295 23.5039 134.84C24.4126 133.645 25.3049 132.453 26.1817 131.264L24.1694 129.78C26.2898 126.904 28.319 124.043 30.2681 121.204L32.3293 122.619C34.3652 119.652 36.3136 116.71 38.1868 113.799L36.0843 112.446C38.0214 109.436 39.8788 106.456 41.6705 103.515L43.8055 104.816C45.6765 101.744 47.4748 98.7165 49.2159 95.7412L47.0582 94.4785C48.8667 91.388 50.6153 88.3506 52.322 85.3751L54.4906 86.619C54.9805 85.7649 55.4664 84.9168 55.9489 84.0746C57.227 81.8439 58.4812 79.6547 59.723 77.5048L57.5581 76.2544C59.3562 73.1413 61.1261 70.1138 62.8915 67.1837L65.0329 68.4738C66.8803 65.4074 68.7168 62.458 70.571 59.6355L68.4815 58.2629C70.4611 55.2494 72.4657 52.3712 74.5276 49.6443L76.5217 51.1521C78.6478 48.3402 80.8256 45.706 83.0919 43.2627L81.259 41.5625C83.6823 38.95 86.2144 36.538 88.8976 34.3474L90.4787 36.284C93.0938 34.149 95.8499 32.239 98.7899 30.5703L97.5559 28.3961C100.542 26.7012 103.716 25.2415 107.119 24.0368L107.953 26.3934C111.002 25.3137 114.252 24.4441 117.738 23.8028L117.286 21.3441C120.567 20.7404 124.041 20.3341 127.73 20.1373L127.863 22.6338C129.282 22.5581 130.736 22.5142 132.226 22.5029C133.404 23.3182 134.558 24.1293 135.688 24.9362L137.141 22.9019C139.969 24.9217 142.65 26.9175 145.197 28.8912L143.666 30.8675C146.385 32.9734 148.948 35.0528 151.374 37.1082L152.99 35.2007C155.65 37.4536 158.148 39.6795 160.507 41.8815L158.801 43.709C161.309 46.0508 163.658 48.3648 165.875 50.6552L167.671 48.9166C170.079 51.4044 172.333 53.8651 174.467 56.3036L172.586 57.9501C174.825 60.5083 176.933 63.0442 178.951 65.565L180.902 64.0026C183.037 66.6693 185.069 69.3153 187.045 71.9472L185.045 73.4481C187.066 76.1396 189.029 78.8187 190.993 81.5025L193.01 80.0262C193.133 80.1946 193.256 80.3629 193.38 80.5312C195.231 83.0623 197.079 85.5873 198.964 88.1125L196.961 89.6084C198.951 92.2726 200.989 94.945 203.123 97.6293L205.08 96.0733C207.119 98.6367 209.242 101.207 211.496 103.791L209.612 105.434C211.776 107.914 214.059 110.409 216.5 112.922L218.293 111.18C220.544 113.498 222.931 115.831 225.484 118.184L223.789 120.022C226.189 122.235 228.733 124.464 231.446 126.713L233.041 124.788C235.522 126.844 238.146 128.919 240.934 131.014L239.432 133.012Z" fill="black" stroke="black" stroke-width="5" stroke-dasharray="10 10"/>
<path d="M94.1528 94.1529C62.3482 125.958 31.2729 133.327 18.2826 133.458C18.4327 118.572 25.7827 89.3921 57.5874 57.5874C89.392 25.7828 116.153 18.4572 133.458 18.2827C133.308 33.2091 125.957 62.3482 94.1528 94.1529Z" fill="#FF1393"/>
<path d="M209.138 209.137C177.334 240.942 146.258 248.311 133.268 248.442C133.418 233.556 140.768 204.376 172.573 172.572C204.377 140.767 231.138 133.442 248.443 133.267C248.293 148.193 240.943 177.333 209.138 209.137Z" fill="#FF1393"/>
<path d="M57.5884 209.137C89.3931 240.942 120.468 248.311 133.459 248.442C133.309 233.556 125.959 204.376 94.1539 172.572C62.3492 140.767 35.5885 133.442 18.2837 133.267C18.4337 148.193 25.7837 177.333 57.5884 209.137Z" fill="#FF1393"/>
<path d="M172.574 94.1529C204.378 125.958 235.454 133.327 248.444 133.458C248.294 118.572 240.944 89.3921 209.139 57.5874C177.335 25.7828 150.574 18.4572 133.269 18.2827C133.419 33.2091 140.769 62.3482 172.574 94.1529Z" fill="#FF1393"/>
</svg>
