<svg width="480" height="721" viewBox="0 0 480 721" fill="none" xmlns="http://www.w3.org/2000/svg">
<g clip-path="url(#clip0_425_9578)">
<rect width="480" height="721" transform="matrix(-1 0 0 1 480 0)" fill="#FF2F9F"/>
<path d="M400.526 79.4745C433.79 112.739 466.292 120.446 479.879 120.583C479.722 105.014 472.034 74.4952 438.77 41.2307C405.505 7.96621 377.516 0.304343 359.417 0.121908C359.574 15.7334 367.261 46.21 400.526 79.4745Z" fill="#FB95D2"/>
<path d="M280.262 199.732C313.527 232.997 346.028 240.704 359.615 240.841C359.458 225.272 351.771 194.753 318.506 161.489C285.242 128.224 257.253 120.562 239.153 120.38C239.31 135.991 246.998 166.468 280.262 199.732Z" fill="#FB95D2"/>
<path d="M438.769 199.732C405.504 232.997 373.003 240.704 359.416 240.841C359.573 225.272 367.261 194.753 400.525 161.489C433.79 128.224 461.779 120.562 479.878 120.38C479.721 135.991 472.033 166.468 438.769 199.732Z" fill="#C7FF51"/>
<path d="M318.505 79.4745C285.241 112.739 252.739 120.446 239.153 120.583C239.31 105.014 246.997 74.4952 280.261 41.2307C313.526 7.96621 341.515 0.304343 359.614 0.121908C359.457 15.7334 351.77 46.21 318.505 79.4745Z" fill="#C7FF51"/>
<path d="M400.526 319.357C433.79 352.622 466.292 360.329 479.879 360.466C479.722 344.897 472.034 314.378 438.77 281.114C405.505 247.849 377.516 240.187 359.417 240.005C359.574 255.616 367.261 286.093 400.526 319.357Z" fill="#FB95D2"/>
<path d="M280.262 439.627C313.527 472.891 346.028 480.599 359.615 480.736C359.458 465.166 351.771 434.648 318.506 401.383C285.242 368.119 257.253 360.457 239.153 360.274C239.31 375.886 246.998 406.362 280.262 439.627Z" fill="#FB95D2"/>
<path d="M438.769 439.627C405.504 472.891 373.003 480.599 359.416 480.736C359.573 465.166 367.261 434.648 400.525 401.383C433.79 368.119 461.779 360.457 479.878 360.274C479.721 375.886 472.033 406.362 438.769 439.627Z" fill="#C7FF51"/>
<path d="M318.505 319.357C285.241 352.622 252.739 360.329 239.153 360.466C239.31 344.897 246.997 314.378 280.261 281.114C313.526 247.849 341.515 240.187 359.614 240.005C359.457 255.616 351.77 286.093 318.505 319.357Z" fill="#C7FF51"/>
<path d="M160.639 319.357C193.904 352.622 226.405 360.329 239.992 360.466C239.835 344.897 232.148 314.378 198.883 281.114C165.619 247.849 137.63 240.187 119.53 240.005C119.687 255.616 127.375 286.093 160.639 319.357Z" fill="#FB95D2"/>
<path d="M40.3756 439.627C73.6401 472.891 106.142 480.599 119.728 480.736C119.571 465.166 111.884 434.648 78.6194 401.383C45.3549 368.119 17.3658 360.457 -0.733237 360.274C-0.576352 375.886 7.11106 406.362 40.3756 439.627Z" fill="#FB95D2"/>
<path d="M198.882 439.627C165.618 472.891 133.116 480.599 119.53 480.736C119.687 465.166 127.374 434.648 160.638 401.383C193.903 368.119 221.892 360.457 239.991 360.274C239.834 375.886 232.147 406.362 198.882 439.627Z" fill="#C7FF51"/>
<path d="M78.6186 319.357C45.3541 352.622 12.8525 360.329 -0.734038 360.466C-0.577104 344.897 7.11027 314.378 40.3748 281.114C73.6393 247.849 101.628 240.187 119.727 240.005C119.57 255.616 111.883 286.093 78.6186 319.357Z" fill="#C7FF51"/>
<path d="M400.526 559.24C433.79 592.505 466.292 600.212 479.879 600.349C479.722 584.78 472.034 554.261 438.77 520.996C405.505 487.732 377.516 480.07 359.417 479.888C359.574 495.499 367.261 525.976 400.526 559.24Z" fill="#FB95D2"/>
<path d="M280.262 679.498C313.527 712.762 346.028 720.47 359.615 720.607C359.458 705.038 351.771 674.519 318.506 641.254C285.242 607.99 257.253 600.328 239.153 600.145C239.31 615.757 246.998 646.233 280.262 679.498Z" fill="#FB95D2"/>
<path d="M438.769 679.498C405.504 712.762 373.003 720.47 359.416 720.607C359.573 705.038 367.261 674.519 400.525 641.254C433.79 607.99 461.779 600.328 479.878 600.145C479.721 615.757 472.033 646.233 438.769 679.498Z" fill="#C7FF51"/>
<path d="M318.505 559.24C285.241 592.505 252.739 600.212 239.153 600.349C239.31 584.78 246.997 554.261 280.261 520.996C313.526 487.732 341.515 480.07 359.614 479.888C359.457 495.499 351.77 525.976 318.505 559.24Z" fill="#C7FF51"/>
<path d="M160.639 559.24C193.904 592.505 226.405 600.212 239.992 600.349C239.835 584.78 232.148 554.261 198.883 520.996C165.619 487.732 137.63 480.07 119.53 479.888C119.687 495.499 127.375 525.976 160.639 559.24Z" fill="#FB95D2"/>
<path d="M40.3756 679.498C73.6401 712.762 106.142 720.47 119.728 720.607C119.571 705.038 111.884 674.519 78.6194 641.254C45.3549 607.99 17.3658 600.328 -0.733237 600.145C-0.576352 615.757 7.11106 646.233 40.3756 679.498Z" fill="#FB95D2"/>
<path d="M198.882 679.498C165.618 712.762 133.116 720.47 119.53 720.607C119.687 705.038 127.374 674.519 160.638 641.254C193.903 607.99 221.892 600.328 239.991 600.145C239.834 615.757 232.147 646.233 198.882 679.498Z" fill="#C7FF51"/>
<path d="M78.6186 559.24C45.3541 592.505 12.8525 600.212 -0.734038 600.349C-0.577104 584.78 7.11027 554.261 40.3748 520.996C73.6393 487.732 101.628 480.07 119.727 479.888C119.57 495.499 111.883 525.976 78.6186 559.24Z" fill="#C7FF51"/>
<path d="M160.639 79.4745C193.904 112.739 226.405 120.446 239.992 120.583C239.835 105.014 232.148 74.4952 198.883 41.2307C165.619 7.96621 137.63 0.304343 119.53 0.121908C119.687 15.7334 127.375 46.21 160.639 79.4745Z" fill="#FB95D2"/>
<path d="M40.3756 199.732C73.6401 232.997 106.142 240.704 119.728 240.841C119.571 225.272 111.884 194.753 78.6194 161.489C45.3549 128.224 17.3658 120.562 -0.733237 120.38C-0.576352 135.991 7.11106 166.468 40.3756 199.732Z" fill="#FB95D2"/>
<path d="M198.882 199.732C165.618 232.997 133.116 240.704 119.53 240.841C119.687 225.272 127.374 194.753 160.638 161.489C193.903 128.224 221.892 120.562 239.991 120.38C239.834 135.991 232.147 166.468 198.882 199.732Z" fill="#C7FF51"/>
<path d="M78.6186 79.4745C45.3541 112.739 12.8525 120.446 -0.734038 120.583C-0.577104 105.014 7.11027 74.4952 40.3748 41.2307C73.6393 7.96621 101.628 0.304343 119.727 0.121908C119.57 15.7334 111.883 46.21 78.6186 79.4745Z" fill="#C7FF51"/>
</g>
<defs>
<clipPath id="clip0_425_9578">
<rect width="480" height="721" fill="white" transform="matrix(-1 0 0 1 480 0)"/>
</clipPath>
</defs>
</svg>
