<svg width="480" height="721" viewBox="0 0 480 721" fill="none" xmlns="http://www.w3.org/2000/svg">
<g clip-path="url(#clip0_425_9418)">
<rect width="480" height="721" fill="#FF2F9F"/>
<path d="M79.4741 79.4745C46.2096 112.739 13.708 120.446 0.121431 120.583C0.278365 105.014 7.96574 74.4952 41.2302 41.2307C74.4947 7.96621 102.484 0.304343 120.583 0.121908C120.426 15.7334 112.739 46.21 79.4741 79.4745Z" fill="#FB95D2"/>
<path d="M199.738 199.732C166.473 232.997 133.972 240.704 120.385 240.841C120.542 225.272 128.229 194.753 161.494 161.489C194.758 128.224 222.747 120.562 240.847 120.38C240.69 135.991 233.002 166.468 199.738 199.732Z" fill="#FB95D2"/>
<path d="M41.231 199.732C74.4955 232.997 106.997 240.704 120.584 240.841C120.427 225.272 112.739 194.753 79.4748 161.489C46.2103 128.224 18.2213 120.562 0.122232 120.38C0.279117 135.991 7.96653 166.468 41.231 199.732Z" fill="black"/>
<path d="M161.495 79.4745C194.759 112.739 227.261 120.446 240.847 120.583C240.69 105.014 233.003 74.4952 199.739 41.2307C166.474 7.96621 138.485 0.304343 120.386 0.121908C120.543 15.7334 128.23 46.21 161.495 79.4745Z" fill="black"/>
<path d="M79.4741 319.357C46.2096 352.622 13.708 360.329 0.121431 360.466C0.278365 344.897 7.96574 314.378 41.2302 281.114C74.4947 247.849 102.484 240.187 120.583 240.005C120.426 255.616 112.739 286.093 79.4741 319.357Z" fill="#FB95D2"/>
<path d="M199.738 439.627C166.473 472.891 133.972 480.599 120.385 480.736C120.542 465.166 128.229 434.648 161.494 401.383C194.758 368.119 222.747 360.457 240.847 360.274C240.69 375.886 233.002 406.362 199.738 439.627Z" fill="#FB95D2"/>
<path d="M41.231 439.627C74.4955 472.891 106.997 480.599 120.584 480.736C120.427 465.166 112.739 434.648 79.4748 401.383C46.2103 368.119 18.2213 360.457 0.122232 360.274C0.279117 375.886 7.96653 406.362 41.231 439.627Z" fill="black"/>
<path d="M161.495 319.357C194.759 352.622 227.261 360.329 240.847 360.466C240.69 344.897 233.003 314.378 199.739 281.114C166.474 247.849 138.485 240.187 120.386 240.005C120.543 255.616 128.23 286.093 161.495 319.357Z" fill="black"/>
<path d="M319.361 319.357C286.096 352.622 253.595 360.329 240.008 360.466C240.165 344.897 247.852 314.378 281.117 281.114C314.381 247.849 342.37 240.187 360.47 240.005C360.313 255.616 352.625 286.093 319.361 319.357Z" fill="#FB95D2"/>
<path d="M439.624 439.627C406.36 472.891 373.858 480.599 360.272 480.736C360.429 465.166 368.116 434.648 401.381 401.383C434.645 368.119 462.634 360.457 480.733 360.274C480.576 375.886 472.889 406.362 439.624 439.627Z" fill="#FB95D2"/>
<path d="M281.118 439.627C314.382 472.891 346.884 480.599 360.47 480.736C360.313 465.166 352.626 434.648 319.362 401.383C286.097 368.119 258.108 360.457 240.009 360.274C240.166 375.886 247.853 406.362 281.118 439.627Z" fill="black"/>
<path d="M401.381 319.357C434.646 352.622 467.147 360.329 480.734 360.466C480.577 344.897 472.89 314.378 439.625 281.114C406.361 247.849 378.372 240.187 360.273 240.005C360.43 255.616 368.117 286.093 401.381 319.357Z" fill="black"/>
<path d="M79.4741 559.24C46.2096 592.505 13.708 600.212 0.121431 600.349C0.278365 584.78 7.96574 554.261 41.2302 520.996C74.4947 487.732 102.484 480.07 120.583 479.888C120.426 495.499 112.739 525.976 79.4741 559.24Z" fill="#FB95D2"/>
<path d="M199.738 679.498C166.473 712.762 133.972 720.47 120.385 720.607C120.542 705.038 128.229 674.519 161.494 641.254C194.758 607.99 222.747 600.328 240.847 600.145C240.69 615.757 233.002 646.233 199.738 679.498Z" fill="#FB95D2"/>
<path d="M41.231 679.498C74.4955 712.762 106.997 720.47 120.584 720.607C120.427 705.038 112.739 674.519 79.4748 641.254C46.2103 607.99 18.2213 600.328 0.122232 600.145C0.279117 615.757 7.96653 646.233 41.231 679.498Z" fill="black"/>
<path d="M161.495 559.24C194.759 592.505 227.261 600.212 240.847 600.349C240.69 584.78 233.003 554.261 199.739 520.996C166.474 487.732 138.485 480.07 120.386 479.888C120.543 495.499 128.23 525.976 161.495 559.24Z" fill="black"/>
<path d="M319.361 559.24C286.096 592.505 253.595 600.212 240.008 600.349C240.165 584.78 247.852 554.261 281.117 520.996C314.381 487.732 342.37 480.07 360.47 479.888C360.313 495.499 352.625 525.976 319.361 559.24Z" fill="#FB95D2"/>
<path d="M439.624 679.498C406.36 712.762 373.858 720.47 360.272 720.607C360.429 705.038 368.116 674.519 401.381 641.254C434.645 607.99 462.634 600.328 480.733 600.145C480.576 615.757 472.889 646.233 439.624 679.498Z" fill="#FB95D2"/>
<path d="M281.118 679.498C314.382 712.762 346.884 720.47 360.47 720.607C360.313 705.038 352.626 674.519 319.362 641.254C286.097 607.99 258.108 600.328 240.009 600.145C240.166 615.757 247.853 646.233 281.118 679.498Z" fill="black"/>
<path d="M401.381 559.24C434.646 592.505 467.147 600.212 480.734 600.349C480.577 584.78 472.89 554.261 439.625 520.996C406.361 487.732 378.372 480.07 360.273 479.888C360.43 495.499 368.117 525.976 401.381 559.24Z" fill="black"/>
<path d="M319.361 79.4745C286.096 112.739 253.595 120.446 240.008 120.583C240.165 105.014 247.852 74.4952 281.117 41.2307C314.381 7.96621 342.37 0.304343 360.47 0.121908C360.313 15.7334 352.625 46.21 319.361 79.4745Z" fill="#FB95D2"/>
<path d="M439.624 199.732C406.36 232.997 373.858 240.704 360.272 240.841C360.429 225.272 368.116 194.753 401.381 161.489C434.645 128.224 462.634 120.562 480.733 120.38C480.576 135.991 472.889 166.468 439.624 199.732Z" fill="#FB95D2"/>
<path d="M281.118 199.732C314.382 232.997 346.884 240.704 360.47 240.841C360.313 225.272 352.626 194.753 319.362 161.489C286.097 128.224 258.108 120.562 240.009 120.38C240.166 135.991 247.853 166.468 281.118 199.732Z" fill="black"/>
<path d="M401.381 79.4745C434.646 112.739 467.147 120.446 480.734 120.583C480.577 105.014 472.89 74.4952 439.625 41.2307C406.361 7.96621 378.372 0.304343 360.273 0.121908C360.43 15.7334 368.117 46.21 401.381 79.4745Z" fill="black"/>
</g>
<defs>
<clipPath id="clip0_425_9418">
<rect width="480" height="721" fill="white"/>
</clipPath>
</defs>
</svg>
