<svg width="480" height="721" viewBox="0 0 480 721" fill="none" xmlns="http://www.w3.org/2000/svg">
<g clip-path="url(#clip0_357_2242)">
<rect width="480" height="721" fill="white"/>
<rect width="480" height="721" fill="#040EF0" fill-opacity="0.988542"/>
<path d="M79.2586 80.2587C46.067 113.45 13.6366 121.141 0.07983 121.277C0.23642 105.742 7.90695 75.2903 41.0986 42.0987C74.2902 8.90712 102.218 1.26204 120.277 1.08001C120.121 16.6573 112.45 47.0671 79.2586 80.2587Z" fill="#C7FF51"/>
<path d="M199.259 200.259C166.067 233.45 133.637 241.141 120.08 241.277C120.236 225.742 127.907 195.29 161.099 162.099C194.29 128.907 222.218 121.262 240.277 121.08C240.121 136.657 232.45 167.067 199.259 200.259Z" fill="#C7FF51"/>
<path d="M41.0989 200.259C74.2905 233.45 106.721 241.141 120.278 241.277C120.121 225.742 112.45 195.29 79.2589 162.099C46.0673 128.907 18.1396 121.262 0.0801512 121.08C0.236692 136.657 7.90726 167.067 41.0989 200.259Z" fill="#C7FF51"/>
<path d="M161.099 80.2587C194.29 113.45 226.721 121.141 240.278 121.277C240.121 105.742 232.45 75.2903 199.259 42.0987C166.067 8.90712 138.14 1.26204 120.08 1.08001C120.237 16.6573 127.907 47.0671 161.099 80.2587Z" fill="#C7FF51"/>
<path d="M79.2586 319.616C46.067 352.808 13.6366 360.498 0.07983 360.635C0.23642 345.1 7.90695 314.648 41.0986 281.456C74.2902 248.265 102.218 240.619 120.277 240.437C120.121 256.015 112.45 286.425 79.2586 319.616Z" fill="#C7FF51"/>
<path d="M199.259 439.616C166.067 472.808 133.637 480.498 120.08 480.635C120.236 465.1 127.907 434.648 161.099 401.456C194.29 368.265 222.218 360.619 240.277 360.437C240.121 376.015 232.45 406.425 199.259 439.616Z" fill="#C7FF51"/>
<path d="M41.0989 439.616C74.2905 472.808 106.721 480.498 120.278 480.635C120.121 465.1 112.45 434.648 79.2589 401.456C46.0673 368.265 18.1396 360.619 0.0801512 360.437C0.236692 376.015 7.90726 406.425 41.0989 439.616Z" fill="#C7FF51"/>
<path d="M161.099 319.616C194.29 352.808 226.721 360.498 240.278 360.635C240.121 345.1 232.45 314.648 199.259 281.456C166.067 248.265 138.14 240.619 120.08 240.437C120.237 256.015 127.907 286.425 161.099 319.616Z" fill="#C7FF51"/>
<path d="M318.616 319.616C285.424 352.808 252.994 360.498 239.437 360.635C239.594 345.1 247.264 314.648 280.456 281.456C313.648 248.265 341.575 240.619 359.635 240.437C359.478 256.015 351.808 286.425 318.616 319.616Z" fill="#C7FF51"/>
<path d="M438.616 439.616C405.424 472.808 372.994 480.498 359.437 480.635C359.594 465.1 367.264 434.648 400.456 401.456C433.648 368.265 461.575 360.619 479.635 360.437C479.478 376.015 471.808 406.425 438.616 439.616Z" fill="#C7FF51"/>
<path d="M280.456 439.616C313.648 472.808 346.078 480.498 359.635 480.635C359.478 465.1 351.808 434.648 318.616 401.456C285.425 368.265 257.497 360.619 239.438 360.437C239.594 376.015 247.265 406.425 280.456 439.616Z" fill="#C7FF51"/>
<path d="M400.456 319.616C433.648 352.808 466.078 360.498 479.635 360.635C479.478 345.1 471.808 314.648 438.616 281.456C405.425 248.265 377.497 240.619 359.438 240.437C359.594 256.015 367.265 286.425 400.456 319.616Z" fill="#C7FF51"/>
<path d="M79.2586 558.974C46.067 592.165 13.6366 599.856 0.07983 599.992C0.23642 584.457 7.90695 554.005 41.0986 520.814C74.2902 487.622 102.218 479.977 120.277 479.795C120.121 495.372 112.45 525.782 79.2586 558.974Z" fill="#C7FF51"/>
<path d="M199.259 678.974C166.067 712.165 133.637 719.856 120.08 719.992C120.236 704.457 127.907 674.005 161.099 640.814C194.29 607.622 222.218 599.977 240.277 599.795C240.121 615.372 232.45 645.782 199.259 678.974Z" fill="#C7FF51"/>
<path d="M41.0989 678.974C74.2905 712.165 106.721 719.856 120.278 719.992C120.121 704.457 112.45 674.005 79.2589 640.814C46.0673 607.622 18.1396 599.977 0.0801512 599.795C0.236692 615.372 7.90726 645.782 41.0989 678.974Z" fill="#C7FF51"/>
<path d="M161.099 558.974C194.29 592.165 226.721 599.856 240.278 599.992C240.121 584.457 232.45 554.005 199.259 520.814C166.067 487.622 138.14 479.977 120.08 479.795C120.237 495.372 127.907 525.782 161.099 558.974Z" fill="#C7FF51"/>
<path d="M318.616 558.974C285.424 592.165 252.994 599.856 239.437 599.992C239.594 584.457 247.264 554.005 280.456 520.814C313.648 487.622 341.575 479.977 359.635 479.795C359.478 495.372 351.808 525.782 318.616 558.974Z" fill="#C7FF51"/>
<path d="M438.616 678.974C405.424 712.165 372.994 719.856 359.437 719.992C359.594 704.457 367.264 674.005 400.456 640.814C433.648 607.622 461.575 599.977 479.635 599.795C479.478 615.372 471.808 645.782 438.616 678.974Z" fill="#C7FF51"/>
<path d="M280.456 678.974C313.648 712.165 346.078 719.856 359.635 719.992C359.478 704.457 351.808 674.005 318.616 640.814C285.425 607.622 257.497 599.977 239.438 599.795C239.594 615.372 247.265 645.782 280.456 678.974Z" fill="#C7FF51"/>
<path d="M400.456 558.974C433.648 592.165 466.078 599.856 479.635 599.992C479.478 584.457 471.808 554.005 438.616 520.814C405.425 487.622 377.497 479.977 359.438 479.795C359.594 495.372 367.265 525.782 400.456 558.974Z" fill="#C7FF51"/>
<path d="M318.616 80.2587C285.424 113.45 252.994 121.141 239.437 121.277C239.594 105.742 247.264 75.2903 280.456 42.0987C313.648 8.90712 341.575 1.26204 359.635 1.08001C359.478 16.6573 351.808 47.0671 318.616 80.2587Z" fill="#C7FF51"/>
<path d="M438.616 200.259C405.424 233.45 372.994 241.141 359.437 241.277C359.594 225.742 367.264 195.29 400.456 162.099C433.648 128.907 461.575 121.262 479.635 121.08C479.478 136.657 471.808 167.067 438.616 200.259Z" fill="#C7FF51"/>
<path d="M280.456 200.259C313.648 233.45 346.078 241.141 359.635 241.277C359.478 225.742 351.808 195.29 318.616 162.099C285.425 128.907 257.497 121.262 239.438 121.08C239.594 136.657 247.265 167.067 280.456 200.259Z" fill="#C7FF51"/>
<path d="M400.456 80.2587C433.648 113.45 466.078 121.141 479.635 121.277C479.478 105.742 471.808 75.2903 438.616 42.0987C405.425 8.90712 377.497 1.26204 359.438 1.08001C359.594 16.6573 367.265 47.0671 400.456 80.2587Z" fill="#C7FF51"/>
</g>
<defs>
<clipPath id="clip0_357_2242">
<rect width="480" height="721" fill="white"/>
</clipPath>
</defs>
</svg>
