<svg width="961" height="305" viewBox="0 0 961 305" fill="none" xmlns="http://www.w3.org/2000/svg">
<rect width="961" height="305" fill="#FF2F9F"/>
<mask id="mask0_359_2511" style="mask-type:alpha" maskUnits="userSpaceOnUse" x="0" y="0" width="961" height="305">
<rect width="961" height="305" fill="black"/>
</mask>
<g mask="url(#mask0_359_2511)">
<rect x="-16" y="114" width="39.0402" height="38.9996" rx="19.4998" fill="#C7FF51"/>
<rect x="-16" y="152" width="39.0402" height="38.9996" rx="19.4998" fill="#C7FF51"/>
<rect x="-16" y="190" width="39.0402" height="38.9996" rx="19.4998" fill="#C7FF51"/>
<rect x="-16" y="266" width="39.0402" height="38.9996" rx="19.4998" fill="#C7FF51"/>
<rect x="-16" y="76.0002" width="39.0402" height="38.9996" rx="19.4998" fill="#C7FF51"/>
<rect x="-16" width="39.0402" height="38.9996" rx="19.4998" fill="#C7FF51"/>
<rect x="98.1221" y="114" width="39.0402" height="38.9996" rx="19.4998" fill="#C7FF51"/>
<rect x="98.1221" y="152" width="39.0402" height="38.9996" rx="19.4998" fill="#C7FF51"/>
<rect x="98.1221" y="190" width="39.0402" height="38.9996" rx="19.4998" fill="#C7FF51"/>
<rect x="98.1221" y="228" width="39.0402" height="38.9996" rx="19.4998" fill="#C7FF51"/>
<rect x="98.1221" y="76" width="39.0402" height="38.9996" rx="19.4998" fill="#C7FF51"/>
<rect x="98.1221" y="38" width="39.0402" height="38.9996" rx="19.4998" fill="#C7FF51"/>
<rect x="136.162" y="114" width="39.0402" height="38.9996" rx="19.4998" fill="#C7FF51"/>
<rect x="136.162" y="152" width="39.0402" height="38.9996" rx="19.4998" fill="#C7FF51"/>
<rect x="136.162" y="190" width="39.0402" height="38.9996" rx="19.4998" fill="#C7FF51"/>
<rect x="136.162" y="266" width="39.0402" height="38.9996" rx="19.4998" fill="#C7FF51"/>
<rect x="136.162" y="76" width="39.0402" height="38.9996" rx="19.4998" fill="#C7FF51"/>
<rect x="136.162" width="39.0402" height="38.9996" rx="19.4998" fill="#C7FF51"/>
<rect x="60.0811" y="114" width="39.0402" height="38.9996" rx="19.4998" fill="#C7FF51"/>
<rect x="60.0811" y="152" width="39.0402" height="38.9996" rx="19.4998" fill="#C7FF51"/>
<rect x="60.0811" y="190" width="39.0402" height="38.9996" rx="19.4998" fill="#C7FF51"/>
<rect x="60.0811" y="228" width="39.0402" height="38.9996" rx="19.4998" fill="#C7FF51"/>
<rect x="60.0811" y="266" width="39.0402" height="38.9996" rx="19.4998" fill="#C7FF51"/>
<rect x="60.0811" y="76" width="39.0402" height="38.9996" rx="19.4998" fill="#C7FF51"/>
<rect x="60.0811" width="39.0402" height="38.9996" rx="19.4998" fill="#C7FF51"/>
<rect x="60.0811" y="38" width="39.0402" height="38.9996" rx="19.4998" fill="#C7FF51"/>
<rect x="22.041" y="114" width="39.0402" height="38.9996" rx="19.4998" fill="#C7FF51"/>
<rect x="22.041" y="152" width="39.0402" height="38.9996" rx="19.4998" fill="#C7FF51"/>
<rect x="22.041" y="190" width="39.0402" height="38.9996" rx="19.4998" fill="#C7FF51"/>
<rect x="22.041" y="228" width="39.0402" height="38.9996" rx="19.4998" fill="#C7FF51"/>
<rect x="22.041" y="76" width="39.0402" height="38.9996" rx="19.4998" fill="#C7FF51"/>
<rect x="22.041" y="38" width="39.0402" height="38.9996" rx="19.4998" fill="#C7FF51"/>
<rect x="174.198" y="114" width="39.0402" height="38.9996" rx="19.4998" fill="#C7FF51"/>
<rect x="174.198" y="152" width="39.0402" height="38.9996" rx="19.4998" fill="#C7FF51"/>
<rect x="174.198" y="190" width="39.0402" height="38.9996" rx="19.4998" fill="#C7FF51"/>
<rect x="174.198" y="266" width="39.0402" height="38.9996" rx="19.4998" fill="#C7FF51"/>
<rect x="174.198" y="76.0002" width="39.0402" height="38.9996" rx="19.4998" fill="#C7FF51"/>
<rect x="174.198" width="39.0402" height="38.9996" rx="19.4998" fill="#C7FF51"/>
<rect x="288.32" y="114" width="39.0402" height="38.9996" rx="19.4998" fill="#C7FF51"/>
<rect x="288.32" y="152" width="39.0402" height="38.9996" rx="19.4998" fill="#C7FF51"/>
<rect x="288.32" y="190" width="39.0402" height="38.9996" rx="19.4998" fill="#C7FF51"/>
<rect x="288.32" y="228" width="39.0402" height="38.9996" rx="19.4998" fill="#C7FF51"/>
<rect x="288.32" y="76" width="39.0402" height="38.9996" rx="19.4998" fill="#C7FF51"/>
<rect x="288.32" y="38" width="39.0402" height="38.9996" rx="19.4998" fill="#C7FF51"/>
<rect x="326.36" y="114" width="39.0402" height="38.9996" rx="19.4998" fill="#C7FF51"/>
<rect x="326.36" y="152" width="39.0402" height="38.9996" rx="19.4998" fill="#C7FF51"/>
<rect x="326.36" y="190" width="39.0402" height="38.9996" rx="19.4998" fill="#C7FF51"/>
<rect x="326.36" y="266" width="39.0402" height="38.9996" rx="19.4998" fill="#C7FF51"/>
<rect x="326.36" y="76" width="39.0402" height="38.9996" rx="19.4998" fill="#C7FF51"/>
<rect x="326.36" width="39.0402" height="38.9996" rx="19.4998" fill="#C7FF51"/>
<rect x="250.279" y="114" width="39.0402" height="38.9996" rx="19.4998" fill="#C7FF51"/>
<rect x="250.279" y="152" width="39.0402" height="38.9996" rx="19.4998" fill="#C7FF51"/>
<rect x="250.279" y="190" width="39.0402" height="38.9996" rx="19.4998" fill="#C7FF51"/>
<rect x="250.279" y="228" width="39.0402" height="38.9996" rx="19.4998" fill="#C7FF51"/>
<rect x="250.279" y="266" width="39.0402" height="38.9996" rx="19.4998" fill="#C7FF51"/>
<rect x="250.279" y="76" width="39.0402" height="38.9996" rx="19.4998" fill="#C7FF51"/>
<rect x="250.279" width="39.0402" height="38.9996" rx="19.4998" fill="#C7FF51"/>
<rect x="250.279" y="38" width="39.0402" height="38.9996" rx="19.4998" fill="#C7FF51"/>
<rect x="212.239" y="114" width="39.0402" height="38.9996" rx="19.4998" fill="#C7FF51"/>
<rect x="212.239" y="152" width="39.0402" height="38.9996" rx="19.4998" fill="#C7FF51"/>
<rect x="212.239" y="190" width="39.0402" height="38.9996" rx="19.4998" fill="#C7FF51"/>
<rect x="212.239" y="228" width="39.0402" height="38.9996" rx="19.4998" fill="#C7FF51"/>
<rect x="212.239" y="76" width="39.0402" height="38.9996" rx="19.4998" fill="#C7FF51"/>
<rect x="212.239" y="38" width="39.0402" height="38.9996" rx="19.4998" fill="#C7FF51"/>
<rect x="364.396" y="114" width="39.0402" height="38.9996" rx="19.4998" fill="#C7FF51"/>
<rect x="364.396" y="152" width="39.0402" height="38.9996" rx="19.4998" fill="#C7FF51"/>
<rect x="364.396" y="190" width="39.0402" height="38.9996" rx="19.4998" fill="#C7FF51"/>
<rect x="364.396" y="266" width="39.0402" height="38.9996" rx="19.4998" fill="#C7FF51"/>
<rect x="364.396" y="76.0002" width="39.0402" height="38.9996" rx="19.4998" fill="#C7FF51"/>
<rect x="364.396" width="39.0402" height="38.9996" rx="19.4998" fill="#C7FF51"/>
<rect x="478.518" y="114" width="39.0402" height="38.9996" rx="19.4998" fill="#C7FF51"/>
<rect x="478.518" y="152" width="39.0402" height="38.9996" rx="19.4998" fill="#C7FF51"/>
<rect x="478.518" y="190" width="39.0402" height="38.9996" rx="19.4998" fill="#C7FF51"/>
<rect x="478.518" y="228" width="39.0402" height="38.9996" rx="19.4998" fill="#C7FF51"/>
<rect x="478.518" y="76" width="39.0402" height="38.9996" rx="19.4998" fill="#C7FF51"/>
<rect x="478.518" y="38" width="39.0402" height="38.9996" rx="19.4998" fill="#C7FF51"/>
<rect x="516.558" y="114" width="39.0402" height="38.9996" rx="19.4998" fill="#C7FF51"/>
<rect x="516.558" y="152" width="39.0402" height="38.9996" rx="19.4998" fill="#C7FF51"/>
<rect x="516.558" y="190" width="39.0402" height="38.9996" rx="19.4998" fill="#C7FF51"/>
<rect x="516.558" y="266" width="39.0402" height="38.9996" rx="19.4998" fill="#C7FF51"/>
<rect x="516.558" y="76" width="39.0402" height="38.9996" rx="19.4998" fill="#C7FF51"/>
<rect x="516.558" width="39.0402" height="38.9996" rx="19.4998" fill="#C7FF51"/>
<rect x="440.477" y="114" width="39.0402" height="38.9996" rx="19.4998" fill="#C7FF51"/>
<rect x="440.477" y="152" width="39.0402" height="38.9996" rx="19.4998" fill="#C7FF51"/>
<rect x="440.477" y="190" width="39.0402" height="38.9996" rx="19.4998" fill="#C7FF51"/>
<rect x="440.477" y="228" width="39.0402" height="38.9996" rx="19.4998" fill="#C7FF51"/>
<rect x="440.477" y="266" width="39.0402" height="38.9996" rx="19.4998" fill="#C7FF51"/>
<rect x="440.477" y="76" width="39.0402" height="38.9996" rx="19.4998" fill="#C7FF51"/>
<rect x="440.477" width="39.0402" height="38.9996" rx="19.4998" fill="#C7FF51"/>
<rect x="440.477" y="38" width="39.0402" height="38.9996" rx="19.4998" fill="#C7FF51"/>
<rect x="402.437" y="114" width="39.0402" height="38.9996" rx="19.4998" fill="#C7FF51"/>
<rect x="402.437" y="152" width="39.0402" height="38.9996" rx="19.4998" fill="#C7FF51"/>
<rect x="402.437" y="190" width="39.0402" height="38.9996" rx="19.4998" fill="#C7FF51"/>
<rect x="402.437" y="228" width="39.0402" height="38.9996" rx="19.4998" fill="#C7FF51"/>
<rect x="402.437" y="76" width="39.0402" height="38.9996" rx="19.4998" fill="#C7FF51"/>
<rect x="402.437" y="38" width="39.0402" height="38.9996" rx="19.4998" fill="#C7FF51"/>
<rect x="554.594" y="114" width="39.0402" height="38.9996" rx="19.4998" fill="#C7FF51"/>
<rect x="554.594" y="152" width="39.0402" height="38.9996" rx="19.4998" fill="#C7FF51"/>
<rect x="554.594" y="190" width="39.0402" height="38.9996" rx="19.4998" fill="#C7FF51"/>
<rect x="554.594" y="266" width="39.0402" height="38.9996" rx="19.4998" fill="#C7FF51"/>
<rect x="554.594" y="76.0002" width="39.0402" height="38.9996" rx="19.4998" fill="#C7FF51"/>
<rect x="554.594" width="39.0402" height="38.9996" rx="19.4998" fill="#C7FF51"/>
<rect x="668.716" y="114" width="39.0402" height="38.9996" rx="19.4998" fill="#C7FF51"/>
<rect x="668.716" y="152" width="39.0402" height="38.9996" rx="19.4998" fill="#C7FF51"/>
<rect x="668.716" y="190" width="39.0402" height="38.9996" rx="19.4998" fill="#C7FF51"/>
<rect x="668.716" y="228" width="39.0402" height="38.9996" rx="19.4998" fill="#C7FF51"/>
<rect x="668.716" y="76" width="39.0402" height="38.9996" rx="19.4998" fill="#C7FF51"/>
<rect x="668.716" y="38" width="39.0402" height="38.9996" rx="19.4998" fill="#C7FF51"/>
<rect x="706.756" y="114" width="39.0402" height="38.9996" rx="19.4998" fill="#C7FF51"/>
<rect x="706.756" y="152" width="39.0402" height="38.9996" rx="19.4998" fill="#C7FF51"/>
<rect x="706.756" y="190" width="39.0402" height="38.9996" rx="19.4998" fill="#C7FF51"/>
<rect x="706.756" y="266" width="39.0402" height="38.9996" rx="19.4998" fill="#C7FF51"/>
<rect x="706.756" y="76" width="39.0402" height="38.9996" rx="19.4998" fill="#C7FF51"/>
<rect x="706.756" width="39.0402" height="38.9996" rx="19.4998" fill="#C7FF51"/>
<rect x="630.675" y="114" width="39.0402" height="38.9996" rx="19.4998" fill="#C7FF51"/>
<rect x="630.675" y="152" width="39.0402" height="38.9996" rx="19.4998" fill="#C7FF51"/>
<rect x="630.675" y="190" width="39.0402" height="38.9996" rx="19.4998" fill="#C7FF51"/>
<rect x="630.675" y="228" width="39.0402" height="38.9996" rx="19.4998" fill="#C7FF51"/>
<rect x="630.675" y="266" width="39.0402" height="38.9996" rx="19.4998" fill="#C7FF51"/>
<rect x="630.675" y="76" width="39.0402" height="38.9996" rx="19.4998" fill="#C7FF51"/>
<rect x="630.675" width="39.0402" height="38.9996" rx="19.4998" fill="#C7FF51"/>
<rect x="630.675" y="38" width="39.0402" height="38.9996" rx="19.4998" fill="#C7FF51"/>
<rect x="592.635" y="114" width="39.0402" height="38.9996" rx="19.4998" fill="#C7FF51"/>
<rect x="592.635" y="152" width="39.0402" height="38.9996" rx="19.4998" fill="#C7FF51"/>
<rect x="592.635" y="190" width="39.0402" height="38.9996" rx="19.4998" fill="#C7FF51"/>
<rect x="592.635" y="228" width="39.0402" height="38.9996" rx="19.4998" fill="#C7FF51"/>
<rect x="592.635" y="76" width="39.0402" height="38.9996" rx="19.4998" fill="#C7FF51"/>
<rect x="592.635" y="38" width="39.0402" height="38.9996" rx="19.4998" fill="#C7FF51"/>
<rect x="744.792" y="114" width="39.0402" height="38.9996" rx="19.4998" fill="#C7FF51"/>
<rect x="744.792" y="152" width="39.0402" height="38.9996" rx="19.4998" fill="#C7FF51"/>
<rect x="744.792" y="190" width="39.0402" height="38.9996" rx="19.4998" fill="#C7FF51"/>
<rect x="744.792" y="266" width="39.0402" height="38.9996" rx="19.4998" fill="#C7FF51"/>
<rect x="744.792" y="76.0002" width="39.0402" height="38.9996" rx="19.4998" fill="#C7FF51"/>
<rect x="744.792" width="39.0402" height="38.9996" rx="19.4998" fill="#C7FF51"/>
<rect x="858.914" y="114" width="39.0402" height="38.9996" rx="19.4998" fill="#C7FF51"/>
<rect x="858.914" y="152" width="39.0402" height="38.9996" rx="19.4998" fill="#C7FF51"/>
<rect x="858.914" y="190" width="39.0402" height="38.9996" rx="19.4998" fill="#C7FF51"/>
<rect x="858.914" y="228" width="39.0402" height="38.9996" rx="19.4998" fill="#C7FF51"/>
<rect x="858.914" y="76" width="39.0402" height="38.9996" rx="19.4998" fill="#C7FF51"/>
<rect x="858.914" y="38" width="39.0402" height="38.9996" rx="19.4998" fill="#C7FF51"/>
<rect x="896.954" y="114" width="39.0402" height="38.9996" rx="19.4998" fill="#C7FF51"/>
<rect x="896.954" y="152" width="39.0402" height="38.9996" rx="19.4998" fill="#C7FF51"/>
<rect x="896.954" y="190" width="39.0402" height="38.9996" rx="19.4998" fill="#C7FF51"/>
<rect x="896.954" y="266" width="39.0402" height="38.9996" rx="19.4998" fill="#C7FF51"/>
<rect x="896.954" y="76" width="39.0402" height="38.9996" rx="19.4998" fill="#C7FF51"/>
<rect x="896.954" width="39.0402" height="38.9996" rx="19.4998" fill="#C7FF51"/>
<rect x="820.873" y="114" width="39.0402" height="38.9996" rx="19.4998" fill="#C7FF51"/>
<rect x="820.873" y="152" width="39.0402" height="38.9996" rx="19.4998" fill="#C7FF51"/>
<rect x="820.873" y="190" width="39.0402" height="38.9996" rx="19.4998" fill="#C7FF51"/>
<rect x="820.873" y="228" width="39.0402" height="38.9996" rx="19.4998" fill="#C7FF51"/>
<rect x="820.873" y="266" width="39.0402" height="38.9996" rx="19.4998" fill="#C7FF51"/>
<rect x="820.873" y="76" width="39.0402" height="38.9996" rx="19.4998" fill="#C7FF51"/>
<rect x="820.873" width="39.0402" height="38.9996" rx="19.4998" fill="#C7FF51"/>
<rect x="820.873" y="38" width="39.0402" height="38.9996" rx="19.4998" fill="#C7FF51"/>
<rect x="782.833" y="114" width="39.0402" height="38.9996" rx="19.4998" fill="#C7FF51"/>
<rect x="782.833" y="152" width="39.0402" height="38.9996" rx="19.4998" fill="#C7FF51"/>
<rect x="782.833" y="190" width="39.0402" height="38.9996" rx="19.4998" fill="#C7FF51"/>
<rect x="782.833" y="228" width="39.0402" height="38.9996" rx="19.4998" fill="#C7FF51"/>
<rect x="782.833" y="76" width="39.0402" height="38.9996" rx="19.4998" fill="#C7FF51"/>
<rect x="782.833" y="38" width="39.0402" height="38.9996" rx="19.4998" fill="#C7FF51"/>
<rect x="934.989" y="114" width="39.0402" height="38.9996" rx="19.4998" fill="#C7FF51"/>
<rect x="934.989" y="152" width="39.0402" height="38.9996" rx="19.4998" fill="#C7FF51"/>
<rect x="934.989" y="190" width="39.0402" height="38.9996" rx="19.4998" fill="#C7FF51"/>
<rect x="934.989" y="266" width="39.0402" height="38.9996" rx="19.4998" fill="#C7FF51"/>
<rect x="934.989" y="76.0002" width="39.0402" height="38.9996" rx="19.4998" fill="#C7FF51"/>
<rect x="934.989" width="39.0402" height="38.9996" rx="19.4998" fill="#C7FF51"/>
</g>
</svg>
