<svg width="211" height="631" viewBox="0 0 211 631" fill="none" xmlns="http://www.w3.org/2000/svg">
<path d="M186.444 1.30664C172.624 43.2381 157.767 144.239 208.901 212.788C150.858 424.27 127.133 576.804 122.527 626.636C105.749 610.42 87.7339 585.732 71.9331 557.358C-30.7315 408.591 2.99889 265.659 32.6972 212.788C53.4271 152.99 143.832 46.8846 186.444 1.30664Z" fill="#C7FF51"/>
<path d="M32.6972 212.788C6.78477 287.536 15.4222 309.414 58.6095 342.23C3.29715 379.377 29.7064 481.53 71.9331 557.358M32.6972 212.788C53.4271 152.99 143.832 46.8846 186.444 1.30664C172.624 43.2381 157.767 144.239 208.901 212.788C150.858 424.27 127.133 576.804 122.527 626.636C105.749 610.42 87.7339 585.732 71.9331 557.358M32.6972 212.788C2.99888 265.659 -30.7315 408.591 71.9331 557.358" stroke="black" stroke-width="3.47834"/>
</svg>
