<svg width="331" height="246" viewBox="0 0 331 246" fill="none" xmlns="http://www.w3.org/2000/svg">
<path d="M313.921 4.36647C352.872 73.808 317.238 250.591 205.921 235.368C176.717 231.374 148.216 212.853 122.241 193.069L121.847 206.06C49.3737 192.587 3.4245 239.731 3.4245 239.731C3.4245 239.731 15.2065 182.571 33.8259 138.813C144.595 10.0607 237.863 32.1157 270.651 59.2372C294.666 41.2519 308.764 17.9593 313.921 4.36647Z" fill="#C7FF51"/>
<path d="M205.921 235.368C317.238 250.591 352.872 73.808 313.921 4.36647C308.764 17.9593 294.666 41.2519 270.651 59.2372M205.921 235.368C176.717 231.374 148.216 212.853 122.241 193.069M205.921 235.368C262.01 173.581 229.667 92.813 218.911 82.2013C248.296 77.5513 256.777 69.628 270.651 59.2372M33.8259 138.813C15.2065 182.571 3.42451 239.731 3.42451 239.731C3.42451 239.731 49.3737 192.587 121.847 206.06L122.241 193.069M33.8259 138.813C55.258 135.957 86.3355 165.72 122.241 193.069M33.8259 138.813C144.595 10.0607 237.863 32.1157 270.651 59.2372" stroke="black" stroke-width="3.47834"/>
</svg>
