<svg width="262" height="494" viewBox="0 0 262 494" fill="none" xmlns="http://www.w3.org/2000/svg">
<path d="M113.961 155.008C154.361 146.184 240.119 137.36 259.951 172.656L259.951 493.261C242.506 452.082 196.046 380.902 149.77 425.61C103.494 470.319 75.3977 452.082 67.1341 437.376L5.34486 134.419C-6.6081 97.9886 14.4171 40.1876 53.3615 4.99999C46.016 39.5564 40.6906 120.068 78.1522 165.664C88.8222 163.649 100.734 160.169 113.961 155.008Z" fill="#C7FF51"/>
<path d="M5.34486 134.419C-6.60809 97.9886 14.4171 40.1876 53.3614 4.99999C46.016 39.5564 40.6906 120.068 78.1522 165.664M5.34486 134.419L67.1341 437.376C75.3977 452.082 103.494 470.319 149.77 425.61C196.046 380.902 242.506 452.082 259.951 493.261C259.951 472.672 259.951 379.726 259.951 172.656C240.119 137.36 154.361 146.184 113.961 155.008C100.734 160.169 88.8222 163.649 78.1522 165.664M5.34486 134.419C13.3433 158.796 36.1083 173.604 78.1522 165.664" stroke="black" stroke-width="3.47834"/>
</svg>
