<svg width="485" height="294" viewBox="0 0 485 294" fill="none" xmlns="http://www.w3.org/2000/svg">
<path d="M357.62 94.5195L481.282 243.192C355.679 265.369 96.8841 305.061 66.5281 286.416C12.2489 264.095 -4.19878 97.295 3.97592 67.7935C10.5157 44.1923 43.3826 15.3624 58.9986 3.89762L62.57 23.5081C67.5813 40.5531 78.3891 59.8014 98.935 64.9083C128.397 72.2314 283.668 87.7004 357.62 94.5195Z" fill="#C7FF51"/>
<path d="M66.5281 286.416C96.8842 305.061 355.679 265.369 481.282 243.192L357.62 94.5195C283.668 87.7004 128.397 72.2314 98.935 64.9083C69.4727 57.5852 60.0348 21.1832 58.9986 3.89762M66.5281 286.416C36.1721 267.771 73.9633 228.141 96.6534 210.656L58.9986 3.89762M66.5281 286.416C12.2489 264.095 -4.19878 97.295 3.97593 67.7935C10.5157 44.1923 43.3826 15.3624 58.9986 3.89762" stroke="black" stroke-width="3.47834"/>
</svg>
