<svg width="309" height="781" viewBox="0 0 309 781" fill="none" xmlns="http://www.w3.org/2000/svg">
<path d="M236.571 2.8457C271.817 9.94204 310.813 41.7446 306.578 114.568L300.607 456.716C205.389 489.578 196.707 511.365 130.582 780.244C148.247 666.66 52.5624 562.231 2.51197 524.215C20.1768 476.112 74.0547 354.77 148.247 254.22C303.698 149.946 271.901 43.1897 236.571 2.8457Z" fill="#C7FF51"/>
<path d="M300.607 456.716C279.261 448.958 223.323 427.389 170.328 403.183C267.436 269.855 302.941 177.092 306.578 114.568M300.607 456.716L306.578 114.568M300.607 456.716C205.389 489.578 196.707 511.365 130.582 780.244C148.247 666.66 52.5624 562.231 2.51197 524.215C20.1768 476.112 74.0547 354.77 148.247 254.22C303.698 149.946 271.901 43.1897 236.571 2.8457C271.817 9.94204 310.813 41.7446 306.578 114.568" stroke="black" stroke-width="3.47834"/>
</svg>
