<svg width="332" height="246" viewBox="0 0 332 246" fill="none" xmlns="http://www.w3.org/2000/svg">
<path d="M314.194 4.69655C353.145 74.1381 317.511 250.921 206.194 235.698C176.99 231.704 148.489 213.183 122.514 193.399L122.12 206.39C49.6471 192.917 3.69794 240.061 3.69794 240.061C3.69794 240.061 15.4799 182.901 34.0993 139.143C144.869 10.3908 238.137 32.4458 270.925 59.5673C294.939 41.5819 309.037 18.2894 314.194 4.69655Z" fill="#C7FF51"/>
<path d="M206.194 235.698C317.511 250.921 353.145 74.1381 314.194 4.69655C309.037 18.2893 294.939 41.5819 270.925 59.5673M206.194 235.698C176.99 231.704 148.489 213.183 122.514 193.399M206.194 235.698C262.283 173.911 229.94 93.1431 219.185 82.5314C248.569 77.8814 257.051 69.9581 270.925 59.5673M34.0993 139.143C15.4799 182.901 3.69794 240.061 3.69794 240.061C3.69794 240.061 49.6471 192.917 122.12 206.39L122.514 193.399M34.0993 139.143C55.5314 136.287 86.609 166.05 122.514 193.399M34.0993 139.143C144.869 10.3908 238.137 32.4458 270.925 59.5673" stroke="black" stroke-width="3.47834"/>
</svg>
